<svg id="Capa_1" data-name="Capa 1" xmlns="http://www.w3.org/2000/svg" xmlns:xlink="http://www.w3.org/1999/xlink" viewBox="0 0 367 269"><defs><style>.cls-1,.cls-3,.cls-4,.cls-5{stroke:#000;stroke-miterlimit:10;}.cls-1,.cls-5{stroke-width:25px;}.cls-2{mask:url(#mask);}.cls-3{stroke-width:17px;}.cls-4{stroke-width:19px;}.cls-5{filter:url(#luminosity-noclip-3);}.cls-6{mask:url(#mask-2);}.cls-7{mask:url(#mask-3);}.cls-8{filter:url(#luminosity-noclip-2);}.cls-9{filter:url(#luminosity-noclip);}</style><filter id="luminosity-noclip" x="59.75" y="23.96" width="319.52" height="258.27" filterUnits="userSpaceOnUse" color-interpolation-filters="sRGB"><feFlood flood-color="#fff" result="bg"/><feBlend in="SourceGraphic" in2="bg"/></filter><mask id="mask" x="59.75" y="23.96" width="319.52" height="258.27" maskUnits="userSpaceOnUse"><g class="cls-9"><rect class="cls-1" x="170.85" y="176.96" width="95.35" height="88.95" rx="6.89"/><path class="cls-1" d="M257.66,268.16q-11.06-.15-22.12,0l-11,.21-11.06.33-22.12.74-11.06.29h-1.12l-.49,0a6.64,6.64,0,0,1-1-.09,8.35,8.35,0,0,1-1-.17,11.91,11.91,0,0,1-3.73-1.47,12.55,12.55,0,0,1-5.19-6,12.24,12.24,0,0,1-.88-4c-.05-.78,0-1.09,0-1.59V255l0-5.53-.1-11.06-.06-22.11-.07-22.12,0-5.53,0-2.77v-.34c0-.1,0-.33,0-.49,0-.35,0-.7.07-1l.15-1.05c.07-.34.16-.68.25-1a12.94,12.94,0,0,1,4.62-6.85,13.07,13.07,0,0,1,7.86-2.71l11.06-.22,11.06-.3,22.11-.79,11.06-.34,11.06-.24q5.53-.08,11.06-.08H258l.74,0a7.19,7.19,0,0,1,1,.11,10.57,10.57,0,0,1,1.25.23,14.26,14.26,0,0,1,4.49,1.85,15.07,15.07,0,0,1,6.1,7.31,14.57,14.57,0,0,1,1,4.74l0,.6v1.11l0,1.38-.15,5.53q-.17,5.52-.45,11.06c-.18,3.68-.42,7.37-.63,11.05l-.75,11.06-.75,11.06c-.21,3.69-.46,7.38-.64,11.06-.09,1.84-.19,3.69-.25,5.53l-.11,2.77c0,.39-.06,1.09-.13,1.66l-.16.89c-.06.29-.15.58-.23.86A11.08,11.08,0,0,1,257.66,268.16Zm0-4.51a6.18,6.18,0,0,0,3.72-1.37,6,6,0,0,0,2.08-3.29c0-.15.07-.31.09-.47l.06-.48c0-.35,0-.57,0-1.09l-.1-2.77c-.07-1.84-.17-3.69-.26-5.53-.18-3.68-.43-7.37-.64-11.06l-.75-11.06-.75-11.06c-.21-3.68-.45-7.37-.63-11.05s-.34-7.38-.45-11.06l-.15-5.53,0-1.38v-1s0-.06,0-.09a1.75,1.75,0,0,0-.18-.64,2.13,2.13,0,0,0-.91-1,2,2,0,0,0-.6-.24c-.05,0-.1,0-.15,0a.47.47,0,0,0-.16,0h-1c-3.68,0-7.37,0-11.06-.08l-11.06-.23-11.06-.35L201.51,182l-11.06-.31-11.06-.21a4.12,4.12,0,0,0-3.94,2.89c0,.11-.06.21-.08.32l-.06.32c0,.11,0,.22,0,.33s0,.07,0,.21v.34l0,2.77-.05,5.53-.07,22.12-.06,22.11-.1,11.06-.05,5.53v1.38c0,.43,0,1,0,1.18a4,4,0,0,0,.27,1.41,4.62,4.62,0,0,0,1.82,2.3,4.27,4.27,0,0,0,1.36.61,2.45,2.45,0,0,0,.37.08,1.57,1.57,0,0,0,.37.05l.19,0h1l11.06.3,22.12.74,11.06.32,11,.22Q246.61,263.8,257.66,263.65Z"/><path class="cls-1" d="M243.79,174.46V162.39c0-6.23-4.23-14.18-9.49-17.52-20.22-12.86-41.39,1.35-41.39,20.5v9.09"/><path class="cls-1" d="M240.25,174.46a10,10,0,0,0,1.3-3.07,13.94,13.94,0,0,0,.39-3.06l0-3.06-.09-1.42a9.62,9.62,0,0,0-.14-1.41,22.79,22.79,0,0,0-23.33-19.84,22.8,22.8,0,0,0-10.35,3,22.2,22.2,0,0,0-7.57,7.35,21.64,21.64,0,0,0-3.17,9.78,9.17,9.17,0,0,0,0,1.28v1.28c0,1,.12,2,.25,3.05a24.92,24.92,0,0,0,1.49,6.13h-12.1a24.92,24.92,0,0,0,1.49-6.13c.13-1,.2-2,.26-3.08l.15-1.79a14.87,14.87,0,0,1,.23-1.76,29.36,29.36,0,0,1,5.49-12.89,27.64,27.64,0,0,1,2.28-2.65c.41-.41.81-.83,1.23-1.23l1.33-1.12.66-.56c.23-.18.47-.33.7-.5l1.42-1c.48-.32,1-.58,1.5-.87a16.9,16.9,0,0,1,1.52-.8,29.31,29.31,0,0,1,13.23-2.82,28.91,28.91,0,0,1,12.86,3.52,28.55,28.55,0,0,1,9.73,8.9c.33.44.57.94.87,1.41s.58.94.81,1.44l.7,1.5c.11.25.24.5.33.76l.28.78.55,1.55c.15.53.27,1.07.4,1.6a23.92,23.92,0,0,1,.58,3.24,11.44,11.44,0,0,1,.13,1.64l.06,1.65,0,3.07a14,14,0,0,0,.4,3.06,9.74,9.74,0,0,0,1.29,3.07Z"/><path class="cls-1" d="M231.33,212.54c0-9.27-9.83-16.23-19.63-11a10.21,10.21,0,0,0-4.22,4.24c-3.87,7.33-.94,14.64,4.64,17.87v11a5.31,5.31,0,0,0,2.49,4.53c5.06,3.13,10.32-.43,10.32-5.22V223.62A12.8,12.8,0,0,0,231.33,212.54Z"/><path class="cls-1" d="M231.16,212.54a10.85,10.85,0,0,0-1.94-6.17A11.56,11.56,0,0,0,227,204a12.67,12.67,0,0,0-2.68-1.6c-.46-.22-1-.37-1.42-.54s-1-.28-1.47-.34a13.84,13.84,0,0,0-2.94-.24,14.08,14.08,0,0,0-2.9.41c-.49.09-.93.29-1.41.42a11.57,11.57,0,0,0-1.35.6,13.46,13.46,0,0,0-2.5,1.64,12.33,12.33,0,0,0-2.07,2.25,10.77,10.77,0,0,0-.35,12,11.17,11.17,0,0,0,4.65,4.16l.44.21,0,.62c.24,3.39.52,6.77.61,10.16a4.83,4.83,0,0,0,1.5,3.38,4.61,4.61,0,0,0,3.34,1.27,4.7,4.7,0,0,0,4.56-4.65c.06-3.39.28-6.77.66-10.16l.09-.8.5-.22a11.35,11.35,0,0,0,4.86-3.91,10.43,10.43,0,0,0,1.45-2.91A11.42,11.42,0,0,0,231.16,212.54Zm.35,0a15.41,15.41,0,0,1-.36,3.38,16.33,16.33,0,0,1-1.12,3.26,14.25,14.25,0,0,1-4.51,5.46l.59-1c.38,3.39.59,6.77.65,10.16a8.11,8.11,0,1,1-16.21,0c.1-3.39.37-6.77.61-10.16l.48.83a14.82,14.82,0,0,1-6.5-11.92,16,16,0,0,1,.76-5.23,14.91,14.91,0,0,1,.69-1.66,14.43,14.43,0,0,1,2-3.06,14.75,14.75,0,0,1,1.33-1.29c.23-.2.47-.41.71-.6l.78-.52a12.85,12.85,0,0,1,7.14-2,12.69,12.69,0,0,1,7,2.32,14.38,14.38,0,0,1,2.64,2.46,13.07,13.07,0,0,1,1,1.45c.16.25.32.49.46.74l.39.78A15.89,15.89,0,0,1,231.51,212.54Z"/></g></mask><filter id="luminosity-noclip-2" x="0.1" y="0.42" width="379.17" height="234.49" filterUnits="userSpaceOnUse" color-interpolation-filters="sRGB"><feFlood flood-color="#fff" result="bg"/><feBlend in="SourceGraphic" in2="bg"/></filter><mask id="mask-2" x="0.1" y="0.42" width="379.17" height="234.49" maskUnits="userSpaceOnUse"><g class="cls-8"><g class="cls-2"><rect class="cls-3" x="76.61" y="43.39" width="284.63" height="177.18" rx="6.89"/><path class="cls-3" d="M352.69,224.18q-56.81-.68-113.61.09c-37.87.55-75.74,1.21-113.61,1.63l-28.4.36-7.11.09-3.55,0H85l-.75,0a14.88,14.88,0,0,1-3-.47,14.45,14.45,0,0,1-10.69-13.09l0-.75v-1.35l0-1.78-.86-56.8-.88-56.81-.37-28.4-.19-14.21v-1c0-.58,0-1.17.1-1.75a17,17,0,0,1,16.8-15.15c37.87-.46,75.74-1.2,113.61-1.84s75.74-.72,113.61-.3l14.2.2,14.21.27,7.1.16,3.55.09.88,0h.52l1,.05a15.58,15.58,0,0,1,1.91.24,17.43,17.43,0,0,1,1.87.43,18.23,18.23,0,0,1,11.32,9.46,18,18,0,0,1,1.85,7.29l0,.93,0,.47,0,.89L370.67,55c-.3,9.47-.7,18.93-1.05,28.4l-1.21,28.4-1.22,28.41c-.36,9.46-.76,18.93-1.07,28.4s-.57,18.94-.78,28.4l-.29,14.21v.92c0,.43,0,.86-.1,1.28a12.6,12.6,0,0,1-.58,2.5,12.45,12.45,0,0,1-2.62,4.33A12.22,12.22,0,0,1,352.69,224.18Zm0-7.23a4.87,4.87,0,0,0,4.52-3.42,4.66,4.66,0,0,0,.19-1c0-.17,0-.33,0-.5v-.84L357.13,197q-.31-14.19-.79-28.4c-.3-9.47-.71-18.94-1.06-28.4l-1.22-28.41-1.21-28.4c-.35-9.47-.75-18.93-1.05-28.4l-.06-1.78,0-.89v-.41a.08.08,0,0,0,0,0,1.12,1.12,0,0,0,0,.48,1.06,1.06,0,0,0,.63.74s.09,0,.14.06.1,0,.14,0h-.3l-.88,0-3.55.09-7.1.16-14.21.27-14.2.2q-56.81.63-113.61-.3c-37.87-.64-75.74-1.38-113.61-1.84,0,0,0-.07-.06,0l-.08,0h0s0,0,0,0v.8l-.19,14.21-.38,28.4-.88,56.81-.85,56.8,0,1.78V212c0,.05,0,.09,0,.13a2.36,2.36,0,0,0,.22,1,2.61,2.61,0,0,0,1.6,1.42,1.19,1.19,0,0,0,.27.07.77.77,0,0,0,.27,0l.14,0h1.28l3.55,0,7.11.09,28.4.36c37.87.42,75.74,1.08,113.61,1.63S314.82,217.4,352.69,217Z"/></g><rect class="cls-4" x="141.72" y="129.13" width="162.24" height="83.96"/></g></mask><filter id="luminosity-noclip-3" x="69.1" y="35.73" width="297.9" height="246.67" filterUnits="userSpaceOnUse" color-interpolation-filters="sRGB"><feFlood flood-color="#fff" result="bg"/><feBlend in="SourceGraphic" in2="bg"/></filter><mask id="mask-3" x="69.1" y="35.73" width="297.9" height="246.67" maskUnits="userSpaceOnUse"><path class="cls-5" d="M272.26,185.5l0-.6a14.57,14.57,0,0,0-1-4.74,15.09,15.09,0,0,0-6.1-7.32,14.47,14.47,0,0,0-4.49-1.84,10.57,10.57,0,0,0-1.25-.23,7.19,7.19,0,0,0-1-.11l-.74,0h-1.17c-3.64,0-7.29,0-10.93.08a15,15,0,0,1-.24-2.2l0-3.07-.07-1.65a11.33,11.33,0,0,0-.13-1.64,23.92,23.92,0,0,0-.58-3.24c-.13-.53-.25-1.07-.4-1.6l-.55-1.56-.28-.78c-.09-.25-.22-.5-.33-.75l-.7-1.5c-.23-.5-.54-1-.81-1.44s-.54-1-.87-1.41a28.45,28.45,0,0,0-9.73-8.9A28.91,28.91,0,0,0,218,137.43a29.31,29.31,0,0,0-13.23,2.82,16.9,16.9,0,0,0-1.52.8c-.5.29-1,.55-1.49.87l-1.43,1c-.23.16-.47.32-.7.5L199,144l-1.33,1.12c-.42.41-.82.83-1.23,1.24a26.2,26.2,0,0,0-2.27,2.65,29.27,29.27,0,0,0-5.5,12.88,13.37,13.37,0,0,0-.22,1.77l-.16,1.79c-.06,1.05-.13,2.05-.26,3.08a32.07,32.07,0,0,1-.77,3.93l-8.19.15a13.08,13.08,0,0,0-7.86,2.72,12.94,12.94,0,0,0-4.62,6.85c-.09.34-.18.68-.25,1l-.15,1c0,.35-.05.7-.07,1.05,0,.16,0,.39,0,.49v.34l0,2.77.05,5.53.07,22.11.06,22.12.1,11.06.05,5.53v1.38c0,.5,0,.81,0,1.59a12.24,12.24,0,0,0,.88,4,12.55,12.55,0,0,0,5.19,6,11.91,11.91,0,0,0,3.73,1.47,8.7,8.7,0,0,0,1,.17,8.26,8.26,0,0,0,1,.09l.49,0h1.12l11.06-.29,22.12-.74,11.06-.33,11.05-.21q11.07-.15,22.12,0a11.09,11.09,0,0,0,10.63-7.8c.08-.28.17-.57.23-.86l.16-.89c.07-.57.12-1.27.13-1.67l.11-2.76c.06-1.84.16-3.69.25-5.53.18-3.69.43-7.37.64-11.06l.75-11.06.75-11.06c.21-3.68.45-7.37.63-11.06s.34-7.37.45-11l.15-5.53,0-1.39v-1.1Z"/></mask></defs><g class="cls-6"><path d="M284.61,189.32q-57-.52-114,.08c-38,.44-76,1-114,1.32L28.18,191l-14.24.15h-.26l-.38,0-.75,0a12.36,12.36,0,0,1-1.48-.25,11.53,11.53,0,0,1-7.19-5.09A12,12,0,0,1,2.58,183a12.19,12.19,0,0,1-.53-3c0-.59,0-.78,0-1.1V178l0-1.78-.69-57-.71-57L.29,33.8.14,19.55l0-1.78V16.21s0-.19,0-.34A13.67,13.67,0,0,1,7,4.2a13.86,13.86,0,0,1,6.8-1.86c38-.37,76-1,114-1.48s76-.58,114-.24L256,.78,270.19,1c4.75.06,9.5.18,14.25.28h.28l.48,0c.32,0,.63,0,.95.08a14.64,14.64,0,0,1,1.89.34,15.06,15.06,0,0,1,3.57,1.4,14.59,14.59,0,0,1,7.57,12.36,11.67,11.67,0,0,1,0,1.23l0,.89-.05,1.78-.84,28.49-1,28.49-1,28.5-.85,28.49q-.39,14.25-.64,28.49l-.23,14.25-.05,3.61a9.88,9.88,0,0,1-9.92,9.62Zm0-5.82a4,4,0,0,0,3.34-2,3.75,3.75,0,0,0,.5-1.9l0-3.5-.23-14.25q-.26-14.25-.63-28.49l-.86-28.49-1-28.5-1-28.49-.84-28.49-.05-1.78,0-.89c0-.26,0-.74,0-.55a.59.59,0,0,0,0,.23.78.78,0,0,0,0,.23.83.83,0,0,0,.28.37.8.8,0,0,0,.24.14c.05,0,.09,0,.14,0l.07,0h-.13c-4.75.1-9.5.22-14.25.28L256,17.68l-14.25.16q-57,.51-114-.24c-38-.51-76-1.11-114-1.48,0,0,0,0,0,0a.08.08,0,0,0-.07,0l0,0,0,3.43L13.46,33.8l-.31,28.49-.7,57-.69,57,0,1.78v1.34c0,.19,0,.17,0,.23a2.16,2.16,0,0,0,.06.51,2.38,2.38,0,0,0,.22.49,2.3,2.3,0,0,0,.77.78,2.18,2.18,0,0,0,.5.2,2.44,2.44,0,0,0,.26.06h.4l14.24.15,28.49.28c38,.35,76,.88,114,1.32S246.62,183.85,284.61,183.5Z"/></g><g class="cls-7"><path d="M367,49.69a13.81,13.81,0,0,0-.56-3.42A13.4,13.4,0,0,0,365,43.12a13.59,13.59,0,0,0-5-4.74,13.88,13.88,0,0,0-3.26-1.27,14.25,14.25,0,0,0-1.73-.32l-.87-.06-.44,0h-.27c-4.75-.08-9.5-.19-14.25-.25q-14.23-.21-28.49-.34-57-.48-114-.33l-114,.72A13.91,13.91,0,0,0,76,38.34,13.78,13.78,0,0,0,69.1,50l0,3.69L69.23,68l.28,28.5.71,57,.76,57,0,1.79v.89c0,.31,0,.5,0,1.1a11.38,11.38,0,0,0,1.83,5.73,11.59,11.59,0,0,0,7.21,5.1,12.52,12.52,0,0,0,1.49.25l.76,0H83l14.24-.15,28.5-.31,114-1.22q57-.56,114-.17a9.85,9.85,0,0,0,8.47-4.77,9.85,9.85,0,0,0,1.42-4.85l0-3.62.17-14.24q.18-14.25.45-28.5L364.8,139l.74-28.49q.76-28.5,1.4-57l0-1.79,0-.89C367,50.54,367,50.39,367,49.69Zm-284.31,4,0-3.44s0,0,0,0l.05,0s0,0,0,0l114,.72q57,.21,114-.33,14.25-.15,28.49-.34c4.75-.06,9.5-.17,14.25-.25h.2s0,0,0,0,0,0,.06,0,.14,0,.18.09,0,0,.07.06,0,0,0,.08a4.24,4.24,0,0,1,0,.6l0,.89,0,1.79q.38,17.82.85,35.64l-12.57-.3-17.79-.37L289,87.77,253.43,87l-17.79-.29-17.79-.17c-23.72-.18-47.43.6-71.15.36l-17.79-.18c-5.93-.1-11.86-.16-17.79-.29s-11.86-.26-17.79-.41l-10.94-.34L82.57,68ZM357,215.66a3.92,3.92,0,0,1-1.42,1.44,4,4,0,0,1-1.94.55q-57,.38-114-.17l-114-1.22L97.2,216,83,215.8h-.39c-.09,0-.18,0-.26-.06a2.37,2.37,0,0,1-.5-.2,2.33,2.33,0,0,1-.76-.77,2.22,2.22,0,0,1-.2-.48,2.16,2.16,0,0,1-.07-.51,1.34,1.34,0,0,1,0-.23V212.2l0-1.79.76-57,.55-43.5,11.21-.35c5.93-.15,11.86-.3,17.79-.41s11.86-.19,17.79-.29l17.79-.18c23.72-.24,47.43.54,71.15.36l17.79-.17,17.79-.29,35.58-.73,35.58-.74,17.79-.37,13-.31c0,1.36.07,2.71.11,4.07l.73,28.49.63,28.49q.27,14.25.46,28.5l.16,14.24,0,3.51A3.71,3.71,0,0,1,357,215.66Z"/></g><path d="M270.68,183.58l0-.61a12,12,0,0,0-8.48-10.87c-.39-.11-.79-.23-1.19-.31s-.81-.14-1.22-.18l-.61,0-.58,0H255.1l-9.52.06c-.1-1.15-.13-2.29-.13-3.44l.06-3.07,0-1.68a13.26,13.26,0,0,0-.11-1.67,27.6,27.6,0,0,0-6.59-15.3l-1.13-1.28L236.4,144l-.62-.59c-.21-.19-.44-.35-.66-.53l-1.34-1.06c-.46-.35-.95-.63-1.43-.95l-.72-.46a6.17,6.17,0,0,0-.74-.43,29.4,29.4,0,0,0-13.21-3.6A29.42,29.42,0,0,0,188,161.5a15.33,15.33,0,0,0-.21,1.79l-.13,1.8-.1,3.08L187.4,173l-10.33.16a10.52,10.52,0,0,0-7.61,3.31,10.71,10.71,0,0,0-2.22,3.58,8.6,8.6,0,0,0-.31,1,6.18,6.18,0,0,0-.21,1,7.48,7.48,0,0,0-.11,1l0,.53V184l.09,11.15,0,22.29.05,22.3.08,11.14,0,5.58v2.09c0,.13,0,.2,0,.38l0,.51a10,10,0,0,0,1.08,3.94,10.18,10.18,0,0,0,6.11,5.06c.32.08.65.17,1,.23s.67.11,1,.14l1,0h.7l2.79,0,11.14-.24,22.3-.6c14.86-.41,29.73-.6,44.59-.42a8.73,8.73,0,0,0,6.35-2.66,8.87,8.87,0,0,0,1.93-3,8.55,8.55,0,0,0,.49-1.73,6.76,6.76,0,0,0,.11-.89l0-.45v-.36c.1-3.71.22-7.43.37-11.14s.35-7.44.52-11.15l.6-11.15.61-11.15c.17-3.71.37-7.43.51-11.14s.27-7.44.37-11.15l.12-5.58,0-1.39v-1.09Zm-73.82-19.71a8.79,8.79,0,0,1,.07-1.26,21.24,21.24,0,0,1,3.26-9.53,21.79,21.79,0,0,1,7.45-7.05,22.4,22.4,0,0,1,10-2.84,22.29,22.29,0,0,1,18.63,9.09,22.88,22.88,0,0,1,4.14,10.08,9,9,0,0,1,.15,1.37l.11,1.39.07,3c0,1.17,0,2.33-.14,3.5l-7.83.13-11.15.28-22.3.64-2.29.05-.14-4.6-.09-3Zm66.64,95.25a2.05,2.05,0,0,1,0,.49,2,2,0,0,1-.09.48,2,2,0,0,1-.13.48,4.77,4.77,0,0,1-1,1.72,5,5,0,0,1-3.6,1.64c-14.86.17-29.73,0-44.59-.42l-22.3-.6-11.14-.24-2.79,0h-.7l-.4,0-.37-.06-.36-.1a3.72,3.72,0,0,1-2.18-1.95,3.42,3.42,0,0,1-.36-1.4v-2.59l0-5.58.08-11.14.05-22.3.06-22.29.08-11.15v-.51a1.24,1.24,0,0,1,0-.33,1.83,1.83,0,0,1,.07-.32,1.15,1.15,0,0,1,.11-.31,3.34,3.34,0,0,1,.71-1.11,3.23,3.23,0,0,1,2.36-1l11.15.17,11.14.25,22.3.63,11.15.28c3.71.06,7.43.16,11.14.19l11.15.07h3.69a.47.47,0,0,0,.16,0,.76.76,0,0,0,.16,0,1.78,1.78,0,0,1,1.25,1.48s0,.06,0,.09,0,.06,0,.12v.87l0,1.39.12,5.58c.1,3.71.21,7.43.36,11.15s.35,7.43.52,11.14l.6,11.15.61,11.15c.17,3.71.37,7.43.51,11.15s.28,7.43.37,11.14v.6Z"/><path d="M228.86,205c-.15-.25-.32-.48-.47-.73a15.63,15.63,0,0,0-1-1.42,13.93,13.93,0,0,0-2.64-2.37,12.65,12.65,0,0,0-6.85-2.21,12.8,12.8,0,0,0-7,2c-.26.16-.51.33-.76.5s-.48.39-.71.58a13,13,0,0,0-1.31,1.26,14.39,14.39,0,0,0-2,3,5.92,5.92,0,0,0-.37.81c-.11.27-.23.54-.33.82a14.74,14.74,0,0,0-.46,1.7,14.5,14.5,0,0,0,5.73,14.94c-.18,3.26-.39,6.52-.47,9.77a7.78,7.78,0,1,0,15.56,0q-.08-4.86-.5-9.74a14.22,14.22,0,0,0,4-4.91,14.81,14.81,0,0,0,0-13.17Z"/></svg>