<svg id="Capa_1" data-name="Capa 1" xmlns="http://www.w3.org/2000/svg" xmlns:xlink="http://www.w3.org/1999/xlink" viewBox="0 0 520 259"><defs><style>.cls-1{stroke:#000;stroke-linecap:round;stroke-miterlimit:10;stroke-width:9px;}.cls-2{mask:url(#mask);}.cls-3{filter:url(#luminosity-noclip);}</style><filter id="luminosity-noclip" x="-3.88" y="0" width="523.36" height="259" filterUnits="userSpaceOnUse" color-interpolation-filters="sRGB"><feFlood flood-color="#fff" result="bg"/><feBlend in="SourceGraphic" in2="bg"/></filter><mask id="mask" x="-3.88" y="0" width="523.36" height="259" maskUnits="userSpaceOnUse"><g class="cls-3"><path class="cls-1" d="M27.67,47.1C44,45.69,60.24,44.62,76.53,43.53L101,42.05l24.43-1.2c8.15-.37,16.29-1.12,24.43-1.7a181.21,181.21,0,0,1,24.44-.09q12.21.78,24.43,2.62a166,166,0,0,1,24.43,5.42v1.78a166,166,0,0,1-24.43,5.42q-12.23,1.86-24.43,2.62a179.59,179.59,0,0,1-24.44-.09c-8.14-.57-16.28-1.33-24.43-1.69L101,53.93,76.53,52.46C60.24,51.36,44,50.3,27.67,48.88Z"/><path class="cls-1" d="M13.31,86.43C29.6,85,45.89,84,62.18,82.86l24.43-1.47L111,80.18c8.15-.36,16.29-1.12,24.43-1.69a177.85,177.85,0,0,1,24.43-.09q12.22.78,24.44,2.62a167.51,167.51,0,0,1,24.43,5.41v1.79a166.25,166.25,0,0,1-24.43,5.42q-12.22,1.86-24.44,2.62a181.07,181.07,0,0,1-24.43-.09c-8.14-.58-16.28-1.33-24.43-1.7l-24.43-1.2L62.18,91.79C45.89,90.7,29.6,89.63,13.31,88.22Z"/><path class="cls-1" d="M.62,125.16c16.29-1.41,32.58-2.48,48.87-3.57l24.43-1.48,24.43-1.2c8.14-.36,16.29-1.12,24.43-1.7a181.07,181.07,0,0,1,24.43-.09c8.15.53,16.29,1.38,24.43,2.62a166.09,166.09,0,0,1,24.44,5.42V127a166.05,166.05,0,0,1-24.44,5.41c-8.14,1.25-16.28,2.1-24.43,2.62a177.85,177.85,0,0,1-24.43-.09c-8.14-.57-16.29-1.33-24.43-1.69L73.92,132l-24.43-1.47C33.2,129.42,16.91,128.36.62,127Z"/></g></mask></defs><g class="cls-2"><path d="M481.45,123.93a24.29,24.29,0,0,0-2.95-7.18c-.34-.55-.73-1.12-1.11-1.63l-.94-1.24-1.87-2.49-3.76-5-7.56-10c-2.55-3.31-5.11-6.61-7.71-9.89-1.3-1.64-2.63-3.26-4-4.88l-2-2.42-.25-.3-.37-.42a9.71,9.71,0,0,0-.78-.79,14,14,0,0,0-1.62-1.32,22.92,22.92,0,0,0-6.77-3.1,28.53,28.53,0,0,0-7-1.09,31,31,0,0,0-7,.61A15.2,15.2,0,0,0,422,74.12a8.42,8.42,0,0,0-3.61,3.43,10.12,10.12,0,0,0-1.11,4.36c0,1.4,0,2.31.07,3.37l.25,6.23.6,12.46c.39,8.3.56,16.61.45,24.92a11.78,11.78,0,0,0,.44,3.63,7.41,7.41,0,0,0,.89,1.93,6,6,0,0,0,1.6,1.59,8.34,8.34,0,0,0,3.81,1.34c.61.09,1.21.11,1.79.14l1.56,0c4.14.17,8.28.44,12.42.77,8.28.68,16.57,1.36,24.91,1.55l1.56,0,.78,0h.91a21.12,21.12,0,0,0,4-.39,11.91,11.91,0,0,0,4.69-2,9.32,9.32,0,0,0,2.21-2.22,10,10,0,0,0,1.36-2.72,13.22,13.22,0,0,0,.53-4.84A24.63,24.63,0,0,0,481.45,123.93Zm-9.23,5.81a2.89,2.89,0,0,1-1,.41,12.84,12.84,0,0,1-2.22.3l-.65,0h-.78l-1.55,0c-8.28.22-16.59.79-24.92,1.53l-12.49,1.06-1.56.12a11.68,11.68,0,0,1-1.31,0,4.6,4.6,0,0,1-2.08-.47,2.42,2.42,0,0,1-1.11-1.42,8.55,8.55,0,0,1-.39-2.52c-.13-8.31,0-16.63.37-25l.56-12.48.24-6.24c0-1,.05-2.19.12-2.86a3.69,3.69,0,0,1,.48-1.61,2,2,0,0,1,.94-.69A8.41,8.41,0,0,1,427,79.5a24.42,24.42,0,0,1,5.41-.18,21,21,0,0,1,5.2,1.1A15.36,15.36,0,0,1,442,82.68a7.3,7.3,0,0,1,.75.69,2.36,2.36,0,0,1,.3.34l.14.16.23.31,1.86,2.47,3.69,5q3.67,5,7.27,10l7.16,10.16,3.56,5.11,1.78,2.56.89,1.28c.23.34.42.63.61,1a14.92,14.92,0,0,1,1.68,4.34,14.39,14.39,0,0,1,.35,2.29,4.58,4.58,0,0,1-.08,1.33C472.13,129.87,472.25,129.67,472.22,129.74Z"/><path d="M518.88,196.86a36.61,36.61,0,0,0-2.55-8.51q-.45-1-1-2c-.33-.64-.73-1.34-1-1.9a11.27,11.27,0,0,1-.79-1.67,3.21,3.21,0,0,1-.17-.66v-9.42l.13-16.95.06-8.47,0-4.24a39.5,39.5,0,0,0-.2-4.48,34.65,34.65,0,0,0-6.47-16.63l-9.81-13.84L477.53,80.4l-9.78-13.85-2.44-3.46-1.22-1.73-.62-.88-.72-1a28.34,28.34,0,0,0-3.31-3.64,24.39,24.39,0,0,0-4.1-3,24.66,24.66,0,0,0-9.6-3.09c-1.62-.18-3.36-.19-4.67-.22l-4.24-.07-16.92-.28-8.47-.12-4.24-.05a35.91,35.91,0,0,0-4.9.21,12.45,12.45,0,0,0-3.34.86,8.89,8.89,0,0,0-3.13,2.31l-.08-11.76,0-6V33.13l-.07-1.73c0-.57,0-1.14-.1-1.73l-.21-1.75a34.58,34.58,0,0,0-4.69-13.82A28.69,28.69,0,0,0,379.45,3.86,35.91,35.91,0,0,0,365.59.13C364.44.07,363.3,0,362.16,0s-2,0-3,0l-6,0-12,.06L317.33.24,269.55.6l-47.77.57-23.89.29L186,1.62l-6,.07-3,0-1.49,0c-.49,0-1.09.05-1.63.07a35.82,35.82,0,0,0-13.19,2.93,26.49,26.49,0,0,0-10.89,8.71,30.35,30.35,0,0,0-5.25,12.62,38.84,38.84,0,0,0-.61,6.59c-.05,1.14,0,2.08,0,3.09l0,3c.22,15.94.3,31.88.34,47.82l.11,47.82,0,12,0,6c0,1,0,2.07.07,3.16a16.42,16.42,0,0,0,.55,3.7c.11.37.26.76.4,1.12a11.56,11.56,0,0,0,.66,1.19,7.35,7.35,0,0,0,1,1.11,6.43,6.43,0,0,0,1.16.86,8.33,8.33,0,0,0,.85.42,12.57,12.57,0,0,0-3.43,1.7,12,12,0,0,0-3.61,4.08,13.84,13.84,0,0,0-1.46,4.35c-.09.64-.17,1.3-.19,1.87l0,.88v30.48a26.77,26.77,0,0,0,.86,5.89,26.45,26.45,0,0,0,2.25,5.6,24.66,24.66,0,0,0,3.69,5,21.65,21.65,0,0,0,5.15,3.94,19.57,19.57,0,0,0,6.29,2.21c1.24.23,1.9.27,2.71.36l2.36.18c3.13.19,6.15.2,9.06.15l4.29-.08,2.08,0h.79l.75,0a11.56,11.56,0,0,0,5.3-1.78c2.57,17.84,16.52,30.34,34.76,30.36h.06c19.54,0,33.48-12.09,36-30.55a11.76,11.76,0,0,0,1.59.89,12.17,12.17,0,0,0,2.77.85,11.72,11.72,0,0,0,1.44.15l.66,0h.27l2.11,0,4.24-.05,8.47-.09,16.95-.19,33.89-.45L397,228.38l8.47-.17,4.24-.09c.38,0,.53,0,1.5-.06a10.07,10.07,0,0,0,2.3-.51,9.32,9.32,0,0,0,2.8-1.62,35.37,35.37,0,0,0,35.46,32.91h.92a36.38,36.38,0,0,0,25.84-11.21,34.6,34.6,0,0,0,9.4-24.66,7.14,7.14,0,0,0,6,3.13h4.17a34.21,34.21,0,0,0,4.6-.32,20,20,0,0,0,9-3.44,18,18,0,0,0,5.8-7.64,26,26,0,0,0,2-9A41.62,41.62,0,0,0,518.88,196.86ZM151.15,146.35l0-12,.12-47.82c0-15.94.11-31.88.33-47.82l0-3c0-1,0-2,.07-2.89a31.73,31.73,0,0,1,.61-5.29,22.47,22.47,0,0,1,4-9.17c3.94-5.25,10.7-7.66,17.76-7.72l95.41,1.13,47.77.37,23.89.13,11.94.06,6,0c1,0,2,0,2.95,0l2.53.12a23.25,23.25,0,0,1,9,2.49,15.75,15.75,0,0,1,6.16,5.76,21.83,21.83,0,0,1,2.75,8.7l.14,1.21c0,.41,0,.84,0,1.26l0,1.26v1.43l-.07,6L382,88.47c-.19,15.94-1.4,31.87-1.6,47.81-.09,4-.11,8-.09,12,0,.82,0,1.38-.1,2a8.21,8.21,0,0,1-.25,1.32c0,.16-.09.25-.11.38s-.05.17-.08.16,0,0,0,0,0,0,0,0,0,0,0,0-.47.37-1.51.58a5.64,5.64,0,0,1-.84.14,6.68,6.68,0,0,1-1,.09l-.51,0-.73,0-1.49,0c-4,.09-8,.27-11.94.41-15.92.57-31.85,1.54-47.77,2.4s-31.85,1.48-47.77,1.76q-47.77.8-95.55.73l-11.94,0c-2,0-4,0-5.6-.15a4.78,4.78,0,0,1-1.53-.37c-.07,0,0,0,0,0a.45.45,0,0,0-.06-.12,1.57,1.57,0,0,0-.1-.28,12.28,12.28,0,0,1-.28-2.21c0-.9,0-1.81,0-2.81Zm25.24,71.13c0,.15,0,.13,0,0l0,0Zm66.76,5.9c-.3,10.44-6.32,21.59-22.34,21.59h0c-12.15,0-20.85-8.89-21.18-21.58a21.86,21.86,0,0,1,21.63-21.77h.16a22.16,22.16,0,0,1,15.76,6.64A20.65,20.65,0,0,1,243.15,223.38Zm20.09-7.95h0Zm3.18,2.74a.68.68,0,0,0,0-.14h0S266.44,218.27,266.42,218.17ZM468.3,238a22.52,22.52,0,0,1-16,6.82h-.59c-11.88,0-21.1-8.92-21.53-21a21,21,0,0,1,5.93-15.28,22.18,22.18,0,0,1,15.66-6.93h.32A21.76,21.76,0,0,1,473.86,223,20.73,20.73,0,0,1,468.3,238Zm47.25-32.55a21.83,21.83,0,0,1-2.11,7.41,13.39,13.39,0,0,1-4.6,5.48,15,15,0,0,1-6.82,2.21,29.1,29.1,0,0,1-3.86.07l-1,0-1.1,0-2.21-.09a1.36,1.36,0,0,1-1.13-.69,1.2,1.2,0,0,1-.13-.31l-.2-.78-.54-2.14c-.33-1.42-.81-2.83-1.25-4.24s-1-2.79-1.53-4.18l-.4-1-.48-1-.95-2c-.67-1.34-1.46-2.65-2.2-4a42.9,42.9,0,0,0-5.7-7.25,36,36,0,0,0-16-9.48c-.75-.24-1.51-.36-2.27-.55a22.59,22.59,0,0,0-2.29-.45,45.06,45.06,0,0,0-4.61-.49l-2.3-.11-2.31.06a42.49,42.49,0,0,0-4.63.38,38.47,38.47,0,0,0-17.54,7,43.09,43.09,0,0,0-12.15,14.39c-.7,1.38-1.46,2.74-2,4.17l-.9,2.12c-.3.71-.52,1.43-.79,2.15l-.75,2.16-.63,2.18-.4,1.38h-.09l-4.24-.08-8.47-.17-67.78-1.18-33.89-.46-16.95-.18-8.47-.1-3.9,0c-.13-.7-.27-1.41-.44-2.11a49,49,0,0,0-3.24-9.49,44.22,44.22,0,0,0-12.54-16,45.76,45.76,0,0,0-18.23-8.78,46.83,46.83,0,0,0-20.1-.24,39.16,39.16,0,0,0-18.63,9.19,49.15,49.15,0,0,0-11.66,16.21c-.32.73-.68,1.45-1,2.18l-.87,2.2c-.61,1.46-1,2.93-1.56,4.4-.23.7-.44,1.41-.65,2.11h-.4l-4.18.13c-2.73.06-5.36.08-7.88,0l-1.87-.13c-.59,0-1.34-.13-1.49-.17a4.66,4.66,0,0,1-1.66-.56,7.44,7.44,0,0,1-2.9-3,11.44,11.44,0,0,1-.92-2.24,12.93,12.93,0,0,1-.38-2.48l-.06-8.35-.11-16.88,0-3.66h.9l33.9-.14,33.89-.23,135.56-.73,16.94-.11,4.24,0,2.13,0c.8,0,1.58,0,2.38-.07a33.2,33.2,0,0,0,5.11-.62,18.89,18.89,0,0,0,5.74-2c.5-.3,1-.58,1.48-.93s.94-.76,1.39-1.16a14.66,14.66,0,0,0,2.29-2.78,17.47,17.47,0,0,0,2.33-5.84,31.67,31.67,0,0,0,.67-5.21c0-.81,0-1.61.05-2.41v-2.13l-.12-17-.63-67.86-.05-4.24c0-1.44,0-2.76,0-3.93l.06-.81c0-.18,0-.41.07-.56l.18,0a76.2,76.2,0,0,1,7.78-.29l8.48-.15,17-.32,4.24-.08c1.5,0,2.59-.07,3.79,0a16.35,16.35,0,0,1,6.51,1.75,17.45,17.45,0,0,1,5.31,4.39l.58.71.64.83,1.3,1.68,2.59,3.36,10.37,13.43L493,111.16,503.3,124.6A30.2,30.2,0,0,1,509.44,139a31.24,31.24,0,0,1,.3,4l.07,4.24.12,8.49.24,17,.06,8.49v.53c0,.18,0,.32,0,.64a6,6,0,0,0,.31,1.4,14.58,14.58,0,0,0,1,2.17c.37.68.67,1.21,1,1.83s.58,1.22.84,1.84a30.74,30.74,0,0,1,2.07,7.75A36.79,36.79,0,0,1,515.55,205.43Z"/></g><path d="M27.78,47c16.29-1.26,32.57-2.2,48.86-3.18l24.43-1.31,24.44-1.08c8.14-.32,16.28-1,24.43-1.51a203.18,203.18,0,0,1,24.43-.08c8.14.47,16.29,1.23,24.43,2.34A183.39,183.39,0,0,1,223.23,47a.82.82,0,0,1,.57,1,.8.8,0,0,1-.57.57,183.44,183.44,0,0,1-24.43,4.83c-8.14,1.1-16.29,1.86-24.43,2.33a203.18,203.18,0,0,1-24.43-.08c-8.15-.51-16.29-1.19-24.43-1.51l-24.44-1.07L76.64,51.76c-16.29-1-32.57-1.92-48.86-3.18a.8.8,0,0,1,0-1.59Z"/><path d="M13.43,86.33C29.72,85.07,46,84.12,62.29,83.15l24.43-1.32,24.43-1.07c8.15-.32,16.29-1,24.44-1.51A203.18,203.18,0,0,1,160,79.17c8.14.47,16.29,1.23,24.43,2.33a183.44,183.44,0,0,1,24.43,4.83.82.82,0,0,1,.57,1,.84.84,0,0,1-.57.57,183.39,183.39,0,0,1-24.43,4.82c-8.14,1.11-16.29,1.87-24.43,2.34A203.18,203.18,0,0,1,135.59,95c-8.15-.52-16.29-1.19-24.44-1.51L86.72,92.41,62.29,91.1c-16.29-1-32.57-1.92-48.86-3.18a.81.81,0,0,1-.74-.86A.79.79,0,0,1,13.43,86.33Z"/><path d="M.74,125.05c16.28-1.25,32.57-2.2,48.86-3.18L74,120.56l24.43-1.07c8.15-.33,16.29-1,24.43-1.51a199.3,199.3,0,0,1,24.44-.08c8.14.46,16.28,1.22,24.43,2.33a185,185,0,0,1,24.43,4.82.83.83,0,0,1,.57,1,.8.8,0,0,1-.57.57,183.44,183.44,0,0,1-24.43,4.83q-12.22,1.65-24.43,2.33a201.3,201.3,0,0,1-24.44-.08c-8.14-.51-16.28-1.19-24.43-1.51L74,131.14,49.6,129.82c-16.29-1-32.58-1.92-48.86-3.18a.8.8,0,0,1-.74-.85A.8.8,0,0,1,.74,125.05Z"/></svg>