<svg id="Capa_1" data-name="Capa 1" xmlns="http://www.w3.org/2000/svg" xmlns:xlink="http://www.w3.org/1999/xlink" viewBox="0 0 367 311"><defs><style>.cls-1{stroke:#000;stroke-miterlimit:10;stroke-width:11px;}.cls-2{mask:url(#mask);}.cls-3{filter:url(#luminosity-noclip);}</style><filter id="luminosity-noclip" x="0" y="-6.35" width="367" height="322.93" filterUnits="userSpaceOnUse" color-interpolation-filters="sRGB"><feFlood flood-color="#fff" result="bg"/><feBlend in="SourceGraphic" in2="bg"/></filter><mask id="mask" x="0" y="-6.35" width="367" height="322.93" maskUnits="userSpaceOnUse"><g class="cls-3"><path class="cls-1" d="M186.27,280.85a149.61,149.61,0,0,1-20.17-1,134.4,134.4,0,0,1-39-10.93,144.88,144.88,0,0,1-17.92-9.71,139.87,139.87,0,0,1-52.57-61.67,141.41,141.41,0,0,1-9.3-81.34A141,141,0,0,1,60.84,76.76a149.83,149.83,0,0,1,11-17.84A158.92,158.92,0,0,1,85.31,42.85a159.25,159.25,0,0,1,15.72-14,155.52,155.52,0,0,1,17.6-11.61,143.12,143.12,0,0,1,39.49-15A152.12,152.12,0,0,1,179.18-.64c3.54-.1,7.09-.31,10.64-.17s7.09.28,10.63.57c1.77.17,3.53.44,5.29.65l2.64.35,2.62.47c1.75.34,3.51.6,5.24,1s3.46.81,5.18,1.23a149.27,149.27,0,0,1,20.12,6.92,137.94,137.94,0,0,1,62.79,54.54,133,133,0,0,1,15.89,38.26l1.1,5c.35,1.67.58,3.38.88,5.07l.41,2.53.3,2.55c.18,1.7.41,3.39.51,5.1a131.5,131.5,0,0,1-.1,20.34h-1.64c-.44-3.32-.64-6.63-1.26-9.9-.28-1.63-.44-3.28-.8-4.89l-1-4.85a147.14,147.14,0,0,0-5.56-18.83,139.79,139.79,0,0,0-8-17.71,148.29,148.29,0,0,0-10.3-16.3A135.7,135.7,0,0,0,235.27,25.5a137.42,137.42,0,0,0-74-7.36,127.17,127.17,0,0,0-66.68,34A130.16,130.16,0,0,0,58,118.29a131.82,131.82,0,0,0,6.18,76.09A133.3,133.3,0,0,0,112,255a135.58,135.58,0,0,0,74.28,24.24Z"/><circle class="cls-1" cx="185.69" cy="280.04" r="26.89"/><path class="cls-1" d="M213.4,280a35.54,35.54,0,0,1-7.48,20.23,28.92,28.92,0,0,1-8.76,7.45,27.33,27.33,0,0,1-11.47,3.3,31.66,31.66,0,0,1-22.87-8.12,32.6,32.6,0,0,1-7.52-10.28A33.37,33.37,0,0,1,152.24,280a35.21,35.21,0,0,1,8.7-24.75A31,31,0,0,1,185.69,245a27.76,27.76,0,0,1,12.9,3.94,28.58,28.58,0,0,1,9.21,9A35.35,35.35,0,0,1,212.4,269,41.12,41.12,0,0,1,213.4,280Zm-1.64,0a19.06,19.06,0,0,0-3.09-9.52,19.61,19.61,0,0,0-7.06-6.41,25.07,25.07,0,0,0-8.24-2.63,32.58,32.58,0,0,0-7.68-.15,25.08,25.08,0,0,0-13.29,5.42A18.71,18.71,0,0,0,165.34,280a20.92,20.92,0,0,0,5.18,15.16,22.11,22.11,0,0,0,15.17,7.64,27.47,27.47,0,0,0,9.11-.8,24.55,24.55,0,0,0,8.69-4.2A21.46,21.46,0,0,0,209.8,290,21.19,21.19,0,0,0,211.76,280Z"/></g></mask></defs><g class="cls-2"><path d="M364.44,302.08a30.23,30.23,0,0,0-1.55-8.28,35.24,35.24,0,0,0-3.76-7.55,54.13,54.13,0,0,0-11.72-12.37,98.8,98.8,0,0,0-14.49-9.41,151.63,151.63,0,0,0-15.77-7.34,233.26,233.26,0,0,0-33.34-10.38,342.82,342.82,0,0,0-34.45-6.21l-11.21-1.47,9.07-7.13a106.86,106.86,0,0,0,36.58-54,104.64,104.64,0,0,0,3.32-16.05c.42-2.7.54-5.43.74-8.15.13-1.36.06-2.73.1-4.09s.06-2.73,0-4.09A103.85,103.85,0,0,0,282,113.69c-.48-1.27-.88-2.56-1.42-3.8L279,106.16c-1.16-2.44-2.28-4.89-3.61-7.24a99.65,99.65,0,0,0-8.78-13.52,109,109,0,0,0-10.7-12,105.77,105.77,0,0,0-12.42-10.15,96.19,96.19,0,0,0-13.79-8.08,98,98,0,0,0-14.82-5.82,105.86,105.86,0,0,0-15.52-3.41,113.31,113.31,0,0,0-15.84-1,111.88,111.88,0,0,0-15.74,1.55,99.35,99.35,0,0,0-15.22,4,95.15,95.15,0,0,0-14.33,6.37,92.13,92.13,0,0,0-13.1,8.51,101.31,101.31,0,0,0-11.59,10.4,107,107,0,0,0-9.77,12A95.48,95.48,0,0,0,96,101.13a100.88,100.88,0,0,0-5.76,14.25,105.64,105.64,0,0,0-4.87,30.22c0,1.29,0,2.57.06,3.85s0,2.57.13,3.85c.21,2.55.33,5.12.75,7.65A101.14,101.14,0,0,0,89.44,176a103.78,103.78,0,0,0,34,51.18l20,16.41-24.81,2.78c-11.44,1.28-22.81,3-34,5.33-5.61,1.19-11.21,2.46-16.73,3.95s-11,3.16-16.36,5.07a158.09,158.09,0,0,0-15.74,6.48,95.41,95.41,0,0,0-14.6,8.41,76.15,76.15,0,0,0-6.51,5.21,47.38,47.38,0,0,0-5.6,6.08c-.44.53-.78,1.12-1.18,1.68a16,16,0,0,0-1.11,1.74c-.33.6-.71,1.18-1,1.79L4.88,294a31.74,31.74,0,0,0-2.19,8.08H.13a31.65,31.65,0,0,1,.56-9.39,37.37,37.37,0,0,1,3.23-9,57.78,57.78,0,0,1,11.43-15A106.22,106.22,0,0,1,29.91,257a153.38,153.38,0,0,1,16-9.27A227.76,227.76,0,0,1,80,234.1a326.44,326.44,0,0,1,35.42-8.9l-4.78,19.19a120,120,0,0,1-51.89-99A122.93,122.93,0,0,1,60.35,126l.88-4.81,1.13-4.75c.34-1.59.86-3.14,1.3-4.7l.69-2.35c.24-.77.52-1.54.79-2.31.55-1.53,1-3.09,1.64-4.59L68.61,98c1.34-3,2.71-5.91,4.29-8.75A119.62,119.62,0,0,1,83.4,72.86a130.15,130.15,0,0,1,13-14.38,126.36,126.36,0,0,1,15-12.14,124,124,0,0,1,72.2-21.85,133.24,133.24,0,0,1,18.92,1.76,124.74,124.74,0,0,1,18.38,4.69,115.72,115.72,0,0,1,17.38,7.49,114.34,114.34,0,0,1,16,10.07,124.6,124.6,0,0,1,14.17,12.39,127.25,127.25,0,0,1,12,14.42A115.27,115.27,0,0,1,290,91.42c1.42,2.78,2.61,5.66,3.83,8.53l1.63,4.39c.56,1.45,1,3,1.46,4.43a118.94,118.94,0,0,1,5.32,36.7c0,1.54-.12,3.09-.18,4.63s-.09,3.09-.3,4.62c-.34,3.07-.61,6.14-1.2,9.18A116,116,0,0,1,253,239.65l-2.13-8.6a351.11,351.11,0,0,1,35,8,241,241,0,0,1,33.81,12.28c10.92,5,21.53,11,30.67,19.09a58.34,58.34,0,0,1,11.82,14,38.38,38.38,0,0,1,3.67,8.5,33.12,33.12,0,0,1,1.2,9.18Z"/></g><path d="M320.08,123.8c-.1-1.69-.33-3.37-.51-5.07l-.29-2.54-.42-2.52c-.29-1.68-.52-3.37-.87-5l-1.09-5A141.5,141.5,0,0,0,310.5,84a139.74,139.74,0,0,0-9.43-18.48,137.22,137.22,0,0,0-62.49-54.29,147,147,0,0,0-20-6.88q-2.56-.65-5.16-1.23c-1.72-.4-3.47-.66-5.21-1l-2.61-.47-2.63-.35c-1.75-.21-3.5-.48-5.26-.65C194.16.38,190.63.11,187.1.11S180,.17,176.51.27a152.34,152.34,0,0,0-21,2.87,149.48,149.48,0,0,0-20.24,6,147.56,147.56,0,0,0-19.06,8.92A153.67,153.67,0,0,0,98.72,29.66a157.64,157.64,0,0,0-15.64,13.9,156.34,156.34,0,0,0-13.44,16A150.48,150.48,0,0,0,58.71,77.31a140.75,140.75,0,0,0-13.46,39.24,140.81,140.81,0,0,0,9.26,81,139.25,139.25,0,0,0,52.33,61.38,145.67,145.67,0,0,0,17.84,9.67,140.87,140.87,0,0,0,19,6.92c2,.56,4,1,6,1.5q0,1.33,0,2.67a33.11,33.11,0,0,0,3.05,12.53,32.65,32.65,0,0,0,7.48,10.23A31.54,31.54,0,0,0,183,310.49a27.24,27.24,0,0,0,11.42-3.28,28.81,28.81,0,0,0,8.72-7.42,35.41,35.41,0,0,0,7.45-20.14,41.09,41.09,0,0,0-1-11,34.71,34.71,0,0,0-4.58-11,28.24,28.24,0,0,0-9.17-9A27.71,27.71,0,0,0,183,244.73,30.89,30.89,0,0,0,158.35,255a34.65,34.65,0,0,0-8.4,18.74A133,133,0,0,1,62,194.39a131.31,131.31,0,0,1-6.16-75.74A129.71,129.71,0,0,1,92.29,52.78,126.59,126.59,0,0,1,158.67,19a136.85,136.85,0,0,1,73.67,7.32,135.12,135.12,0,0,1,59.21,45.62A147,147,0,0,1,301.8,88.14a135.9,135.9,0,0,1,8,17.63,143.27,143.27,0,0,1,5.54,18.74l1,4.82c.36,1.61.52,3.24.8,4.87.61,3.26.82,6.55,1.26,9.85H320A130.32,130.32,0,0,0,320.08,123.8Z"/></svg>